<?xml version="1.0" encoding="utf-8"?>
<svg width="24px" height="24px" viewBox="0 0 24 24" version="1.1" xmlns:xlink="http://www.w3.org/1999/xlink" xmlns="http://www.w3.org/2000/svg">
  <defs>
    <path d="M24 0L24 0L24 24L0 24L0 0L24 0Z" id="path_1" />
    <clipPath id="clip_1">
      <use xlink:href="#path_1" clip-rule="evenodd" fill-rule="evenodd" />
    </clipPath>
  </defs>
  <g id="Home 7" clip-path="url(#clip_1)">
    <path d="M24 0L24 0L24 24L0 24L0 0L24 0Z" id="Home-7" fill="none" stroke="none" />
    <path d="M12 1.125L0.375 10.5L0.55957 10.7454C1.0722 11.429 2.05105 11.5469 2.71143 11.0046L12 3.375L21.2886 11.0046C21.9489 11.5469 22.9278 11.429 23.4404 10.7454L23.625 10.5L20.25 7.77832L20.25 3L16.875 3L16.875 5.05664L12 1.125L12 1.125ZM12 4.875L3 12L3 21L21 21L21 13.125L12 4.875L12 4.875ZM9.75 12.75L14.25 12.75L14.25 19.5L9.75 19.5L9.75 12.75L9.75 12.75Z" id="Shape" fill="#666373" fill-opacity="0.4" fill-rule="evenodd" stroke="none" />
  </g>
</svg>