<?xml version="1.0" encoding="utf-8"?>
<svg width="24px" height="24px" viewBox="0 0 24 24" version="1.1" xmlns:xlink="http://www.w3.org/1999/xlink" xmlns="http://www.w3.org/2000/svg">
  <defs>
    <path d="M24 0L24 0L24 24L0 24L0 0L24 0Z" id="path_1" />
    <clipPath id="clip_1">
      <use xlink:href="#path_1" clip-rule="evenodd" fill-rule="evenodd" />
    </clipPath>
  </defs>
  <g id="Home 5" clip-path="url(#clip_1)" transform="scale(0.99999994 0.99999994)">
    <path d="M24 0L24 0L24 24L0 24L0 0L24 0Z" id="Home-5" fill="none" stroke="none" />
    <path d="M18.8243 1.87482C18.3057 1.87482 17.8828 2.32463 17.8828 2.87613L17.8828 7.66361L12.9107 2.37547C12.5429 1.98434 11.9251 1.98434 11.5573 2.37547L0.52454 14.1408C0.156781 14.5319 0.156781 15.1577 0.52454 15.5489C0.8923 15.94 1.48072 15.94 1.84847 15.5489L12.234 4.50324L22.649 15.5802C22.8328 15.7757 23.0829 15.8931 23.3256 15.8931C23.5684 15.8931 23.789 15.7757 23.9729 15.5802C24.3406 15.189 24.3406 14.5632 23.9729 14.1721L20.7072 10.6988L20.7072 2.87613C20.7072 2.32463 20.2843 1.87482 19.7657 1.87482L18.8243 1.87482ZM12.234 6.3494L1.8779 17.3637L1.8779 22.8709C1.8779 24.5293 3.14299 25.8748 4.70229 25.8748L19.7657 25.8748C21.325 25.8748 22.5901 24.5293 22.5901 22.8709L22.5901 17.3637L12.234 6.3494ZM10.3511 15.8618L14.1169 15.8618C14.6355 15.8618 15.0584 16.3116 15.0584 16.8631L15.0584 22.8709C15.0584 23.4224 14.6355 23.8722 14.1169 23.8722L10.3511 23.8722C9.83253 23.8722 9.40961 23.4224 9.40961 22.8709L9.40961 16.8631C9.40961 16.3116 9.83253 15.8618 10.3511 15.8618L10.3511 15.8618Z" id="Shape" fill="#666373" fill-rule="evenodd" stroke="none" />
  </g>
</svg>