<?xml version="1.0" encoding="utf-8"?>
<svg width="24px" height="24px" viewBox="0 0 24 24" version="1.1" xmlns:xlink="http://www.w3.org/1999/xlink" xmlns="http://www.w3.org/2000/svg">
  <defs>
    <path d="M0.960022 0C0.430054 0 0 0.413513 0 0.923096L0 20.3077C0 22.3467 1.71936 24 3.84003 24L18.24 24L19.2 24L20.16 24C22.2806 24 24 22.3467 24 20.3077L24 7.38464C24 6.87506 23.5699 6.46155 23.04 6.46155L21.12 6.46155L21.12 20.3077C21.12 20.8182 20.6899 21.2308 20.16 21.2308C19.6301 21.2308 19.2 20.8182 19.2 20.3077L19.2 0.923096C19.2 0.413513 18.7699 0 18.24 0L0.960022 0L0.960022 0ZM2.88 3.69232L16.32 3.69232L16.32 6.46155L2.88 6.46155L2.88 3.69232L2.88 3.69232ZM2.88 10.1539L8.64001 10.1539L8.64001 12L2.88 12L2.88 10.1539L2.88 10.1539ZM10.56 10.1539L16.32 10.1539L16.32 12L10.56 12L10.56 10.1539L10.56 10.1539ZM2.88 13.8461L8.64001 13.8461L8.64001 15.6923L2.88 15.6923L2.88 13.8461L2.88 13.8461ZM10.56 13.8461L16.32 13.8461L16.32 15.6923L10.56 15.6923L10.56 13.8461L10.56 13.8461ZM2.88 17.5385L8.64001 17.5385L8.64001 19.3846L2.88 19.3846L2.88 17.5385L2.88 17.5385ZM10.56 17.5385L16.32 17.5385L16.32 19.3846L10.56 19.3846L10.56 17.5385L10.56 17.5385Z" id="path_1" />
    <clipPath id="clip_1">
      <use xlink:href="#path_1" />
    </clipPath>
  </defs>
  <g id="Shape">
    <use stroke="none" fill="#637381" fill-opacity="0.4" xlink:href="#path_1" fill-rule="evenodd" />
    <g clip-path="url(#clip_1)">
      <use xlink:href="#path_1" fill="none" stroke="#808080" stroke-width="2" />
    </g>
  </g>
</svg>