<?xml version="1.0" encoding="utf-8"?>
<svg width="300px" height="300px" viewBox="0 0 300 300" version="1.1" xmlns:xlink="http://www.w3.org/1999/xlink" xmlns="http://www.w3.org/2000/svg">
  <defs>
    <path d="M300 0L300 0L300 300L0 300L0 0L300 0Z" id="path_1" />
    <clipPath id="clip_1">
      <use xlink:href="#path_1" clip-rule="evenodd" fill-rule="evenodd" />
    </clipPath>
  </defs>
  <g id="Github 3" clip-path="url(#clip_1)">
    <path d="M300 0L300 0L300 300L0 300L0 0L300 0Z" id="Github-3" fill="none" stroke="none" />
    <path d="M150 25C81.0754 25 25 81.0755 25 150C25 218.925 81.0754 275 150 275C218.925 275 275 218.925 275 150C275 81.0755 218.925 25 150 25L150 25ZM150 43.75C208.791 43.75 256.25 91.2087 256.25 150C256.25 197.908 224.731 238.266 181.25 251.575L181.25 219.604C181.25 207.666 174.371 197.429 164.429 192.334C184.042 188.582 200.186 177.49 207.785 162.546C215.384 147.603 213.503 130.644 202.734 117.004C205.507 108.471 208.603 93.5042 201.245 81.7261C187.058 81.7261 177.904 91.4505 173.535 97.4975C166.066 95.0439 158.074 93.7713 150 93.75C141.921 93.7572 133.92 95.0174 126.44 97.4609C122.061 91.4111 112.914 81.7261 98.7549 81.7261C90.3107 95.2426 95.5307 109.778 98.3276 115.71C86.8252 129.298 84.3893 146.536 91.8097 161.835C99.2302 177.134 115.562 188.546 135.51 192.371C127.347 196.578 121.233 204.213 119.36 213.477L111.145 213.477C103.039 213.477 99.8891 210.183 95.5078 204.626C91.1828 199.07 86.5323 195.337 80.9448 193.787C77.9323 193.468 75.9028 195.759 78.5278 197.79C87.3966 203.828 88.0087 213.709 91.5649 220.178C94.8024 226.003 101.436 231.25 108.936 231.25L118.75 231.25L118.75 251.575C75.2691 238.266 43.75 197.908 43.75 150C43.75 91.2087 91.2087 43.75 150 43.75L150 43.75Z" id="Shape" fill="#000000" fill-rule="evenodd" stroke="none" />
  </g>
</svg>